<svg width="100" height="82" viewBox="0 0 100 82" fill="none" xmlns="http://www.w3.org/2000/svg">
<path d="M31.4125 81.75C69.15 81.75 89.7937 50.4812 89.7937 23.4125C89.7937 22.5375 89.7938 21.65 89.7563 20.775C93.7754 17.8655 97.2441 14.2634 100 10.1375C96.2457 11.7928 92.2673 12.8838 88.1938 13.375C92.4846 10.8102 95.6983 6.7748 97.2375 2.01875C93.2062 4.40702 88.7938 6.08358 84.1937 6.975C81.1011 3.6814 77.0088 1.49948 72.5505 0.767233C68.0923 0.0349815 63.517 0.793258 59.5334 2.92461C55.5497 5.05596 52.38 8.44143 50.5153 12.5566C48.6506 16.6718 48.1949 21.2871 49.2188 25.6875C41.0609 25.2784 33.0801 23.1592 25.794 19.4671C18.5079 15.7751 12.0793 10.5928 6.925 4.25625C4.30838 8.77552 3.50984 14.1213 4.69154 19.2079C5.87324 24.2946 8.94659 28.7408 13.2875 31.6437C10.0346 31.5332 6.85326 30.6597 4 29.0937V29.375C4.00561 34.1093 5.64567 38.6964 8.64296 42.361C11.6403 46.0256 15.8109 48.543 20.45 49.4875C18.6891 49.9726 16.8702 50.2144 15.0438 50.2063C13.7561 50.2102 12.4711 50.0909 11.2062 49.85C12.5174 53.9254 15.0705 57.4885 18.5078 60.0405C21.9451 62.5924 26.0946 64.0053 30.375 64.0813C23.1035 69.7925 14.1213 72.89 4.875 72.875C3.24575 72.8819 1.61764 72.7879 0 72.5937C9.38447 78.5766 20.2831 81.7534 31.4125 81.75V81.75Z" fill="white"/>
</svg>
